<svg xmlns="http://www.w3.org/2000/svg" xmlns:xlink="http://www.w3.org/1999/xlink" width="250" zoomAndPan="magnify" viewBox="0 0 187.5 37.5" height="50" preserveAspectRatio="xMidYMid meet" version="1.0"><defs><g/><clipPath id="id1"><path d="M 131.859375 26 L 146 26 L 146 31.390625 L 131.859375 31.390625 Z M 131.859375 26 " clip-rule="nonzero"/></clipPath></defs><path fill="rgb(19.219971%, 47.839355%, 65.879822%)" d="M 157.597656 10.992188 C 157.597656 10.992188 160.777344 10.066406 163.1875 9.808594 C 164.507812 7.179688 163.378906 5.675781 163.378906 5.675781 C 159.277344 4.675781 155.585938 5.984375 152.648438 8.132812 C 152.210938 8.863281 151.773438 9.773438 151.535156 10.796875 C 151.535156 10.796875 151.707031 9.730469 152.132812 8.519531 C 149.828125 10.335938 148.023438 12.636719 146.902344 14.65625 C 144.316406 19.3125 146.183594 19.839844 146.183594 19.839844 C 151.214844 10.09375 160.886719 6.925781 160.886719 6.925781 C 147.957031 12.207031 142.6875 28.242188 142.6875 28.242188 C 144.316406 24.738281 146.902344 21.859375 146.902344 21.859375 C 148.628906 24.625 150.265625 22.097656 154.679688 18.078125 C 153.714844 17.859375 152.328125 17.667969 150.542969 17.742188 C 150.542969 17.742188 153.234375 17.394531 155.183594 17.621094 C 156.167969 16.742188 157.273438 15.808594 158.542969 14.847656 C 160.785156 13.144531 162.113281 11.636719 162.882812 10.363281 C 161.582031 10.511719 159.703125 10.734375 157.597656 10.992188 " fill-opacity="1" fill-rule="nonzero"/><g clip-path="url(#id1)"><path fill="rgb(15.689087%, 25.489807%, 32.159424%)" d="M 145.421875 28.980469 C 145.382812 28.878906 145.320312 28.8125 145.261719 28.761719 C 145.015625 28.582031 144.765625 28.519531 144.519531 28.449219 C 144.023438 28.320312 143.519531 28.261719 143.015625 28.226562 C 143.507812 28.34375 143.992188 28.472656 144.457031 28.644531 C 144.683594 28.730469 144.921875 28.835938 145.066406 28.976562 C 145.140625 29.0625 145.128906 29.070312 145.097656 29.113281 C 145.042969 29.164062 144.960938 29.230469 144.855469 29.273438 C 144 29.65625 142.972656 29.792969 142 29.957031 C 141.011719 30.09375 140.023438 30.242188 139.027344 30.359375 C 138.039062 30.476562 137.039062 30.601562 136.074219 30.621094 C 135.835938 30.625 135.589844 30.625 135.390625 30.59375 C 135.375 30.59375 135.367188 30.585938 135.351562 30.585938 C 135.441406 30.476562 135.578125 30.347656 135.707031 30.234375 L 136.273438 29.757812 C 136.660156 29.429688 137.054688 29.105469 137.421875 28.714844 C 137.605469 28.519531 137.785156 28.308594 137.921875 28.042969 C 137.992188 27.90625 138.050781 27.757812 138.074219 27.582031 C 138.105469 27.414062 138.074219 27.179688 137.949219 27.011719 C 137.679688 26.667969 137.351562 26.640625 137.085938 26.59375 C 136.808594 26.558594 136.546875 26.566406 136.285156 26.582031 C 135.765625 26.617188 135.261719 26.699219 134.765625 26.800781 C 133.777344 27.03125 132.800781 27.296875 131.855469 27.652344 C 132.847656 27.464844 133.832031 27.273438 134.824219 27.167969 C 135.320312 27.109375 135.8125 27.0625 136.300781 27.0625 C 136.539062 27.066406 136.78125 27.078125 137.003906 27.121094 C 137.21875 27.160156 137.429688 27.257812 137.460938 27.339844 C 137.511719 27.386719 137.464844 27.5625 137.363281 27.734375 C 137.257812 27.90625 137.109375 28.085938 136.941406 28.25 C 136.609375 28.582031 136.214844 28.882812 135.820312 29.191406 C 135.621094 29.347656 135.421875 29.503906 135.222656 29.675781 C 135.023438 29.859375 134.824219 30.003906 134.625 30.320312 L 134.558594 30.460938 C 134.535156 30.527344 134.523438 30.605469 134.519531 30.679688 C 134.515625 30.757812 134.546875 30.867188 134.582031 30.949219 C 134.625 31.023438 134.679688 31.078125 134.738281 31.132812 C 134.953125 31.289062 135.113281 31.308594 135.261719 31.339844 C 135.558594 31.390625 135.820312 31.390625 136.082031 31.390625 C 138.15625 31.289062 140.121094 30.949219 142.109375 30.535156 C 143.09375 30.292969 144.085938 30.109375 145.039062 29.601562 C 145.15625 29.53125 145.277344 29.4375 145.378906 29.292969 C 145.425781 29.203125 145.453125 29.09375 145.421875 28.980469 " fill-opacity="1" fill-rule="nonzero"/></g><g fill="rgb(0%, 0%, 0%)" fill-opacity="1"><g transform="translate(29.530592, 26.631127)"><g><path d="M 1.234375 0 L 1.171875 -0.890625 L 2.53125 -1.21875 C 2.5625 -1.28125 2.578125 -1.414062 2.578125 -1.625 C 2.585938 -1.832031 2.597656 -2.171875 2.609375 -2.640625 C 2.617188 -3.109375 2.625 -3.742188 2.625 -4.546875 L 2.640625 -9.296875 C 2.640625 -10.054688 2.628906 -10.660156 2.609375 -11.109375 C 2.597656 -11.566406 2.585938 -11.90625 2.578125 -12.125 C 2.578125 -12.34375 2.566406 -12.46875 2.546875 -12.5 L 1.09375 -12.84375 L 1.171875 -13.734375 L 6.15625 -13.734375 C 7.695312 -13.734375 8.894531 -13.394531 9.75 -12.71875 C 10.613281 -12.039062 11.046875 -11.0625 11.046875 -9.78125 C 11.046875 -8.90625 10.820312 -8.144531 10.375 -7.5 C 9.9375 -6.863281 9.34375 -6.367188 8.59375 -6.015625 C 7.84375 -5.671875 7.003906 -5.5 6.078125 -5.5 C 5.722656 -5.5 5.394531 -5.519531 5.09375 -5.5625 C 4.800781 -5.601562 4.523438 -5.644531 4.265625 -5.6875 L 4.265625 -6.953125 C 4.609375 -6.835938 4.914062 -6.753906 5.1875 -6.703125 C 5.457031 -6.660156 5.734375 -6.640625 6.015625 -6.640625 C 6.929688 -6.640625 7.644531 -6.867188 8.15625 -7.328125 C 8.675781 -7.796875 8.9375 -8.515625 8.9375 -9.484375 C 8.9375 -10.585938 8.644531 -11.398438 8.0625 -11.921875 C 7.488281 -12.441406 6.769531 -12.703125 5.90625 -12.703125 L 4.65625 -12.703125 C 4.65625 -12.609375 4.648438 -12.394531 4.640625 -12.0625 C 4.640625 -11.726562 4.632812 -11.316406 4.625 -10.828125 C 4.613281 -10.347656 4.609375 -9.835938 4.609375 -9.296875 L 4.640625 -4.546875 C 4.640625 -3.742188 4.640625 -3.113281 4.640625 -2.65625 C 4.648438 -2.195312 4.664062 -1.863281 4.6875 -1.65625 C 4.71875 -1.457031 4.734375 -1.316406 4.734375 -1.234375 L 6.671875 -0.9375 L 6.59375 0 Z M 1.234375 0 "/></g></g></g><g fill="rgb(0%, 0%, 0%)" fill-opacity="1"><g transform="translate(46.350789, 26.631127)"><g><path d="M 6.015625 0.1875 C 5.003906 0.1875 4.117188 -0.03125 3.359375 -0.46875 C 2.597656 -0.90625 2.003906 -1.515625 1.578125 -2.296875 C 1.160156 -3.085938 0.953125 -3.992188 0.953125 -5.015625 C 0.953125 -6.066406 1.179688 -6.984375 1.640625 -7.765625 C 2.109375 -8.546875 2.734375 -9.15625 3.515625 -9.59375 C 4.304688 -10.03125 5.171875 -10.25 6.109375 -10.25 C 7.078125 -10.25 7.921875 -10.035156 8.640625 -9.609375 C 9.359375 -9.179688 9.921875 -8.578125 10.328125 -7.796875 C 10.734375 -7.023438 10.9375 -6.128906 10.9375 -5.109375 C 10.9375 -4.117188 10.71875 -3.222656 10.28125 -2.421875 C 9.84375 -1.617188 9.25 -0.984375 8.5 -0.515625 C 7.757812 -0.046875 6.929688 0.1875 6.015625 0.1875 Z M 6.25 -0.90625 C 6.78125 -0.90625 7.238281 -1.066406 7.625 -1.390625 C 8.019531 -1.710938 8.328125 -2.15625 8.546875 -2.71875 C 8.765625 -3.289062 8.875 -3.945312 8.875 -4.6875 C 8.875 -6.019531 8.59375 -7.101562 8.03125 -7.9375 C 7.476562 -8.78125 6.753906 -9.203125 5.859375 -9.203125 C 5.015625 -9.203125 4.335938 -8.851562 3.828125 -8.15625 C 3.316406 -7.457031 3.0625 -6.523438 3.0625 -5.359375 C 3.0625 -4.484375 3.195312 -3.707031 3.46875 -3.03125 C 3.75 -2.363281 4.128906 -1.84375 4.609375 -1.46875 C 5.097656 -1.09375 5.644531 -0.90625 6.25 -0.90625 Z M 6.25 -0.90625 "/></g></g></g><g fill="rgb(0%, 0%, 0%)" fill-opacity="1"><g transform="translate(63.030597, 26.631127)"><g><path d="M 5.8125 0.1875 C 4.90625 0.1875 4.082031 -0.015625 3.34375 -0.421875 C 2.613281 -0.828125 2.035156 -1.40625 1.609375 -2.15625 C 1.191406 -2.914062 0.984375 -3.8125 0.984375 -4.84375 C 0.984375 -5.945312 1.207031 -6.90625 1.65625 -7.71875 C 2.113281 -8.53125 2.707031 -9.160156 3.4375 -9.609375 C 4.175781 -10.054688 4.96875 -10.269531 5.8125 -10.25 C 7.019531 -10.238281 7.96875 -9.835938 8.65625 -9.046875 C 9.34375 -8.253906 9.6875 -7.128906 9.6875 -5.671875 L 9.6875 -5.25 L 2.5 -5.25 L 2.5 -6.265625 L 8.140625 -6.265625 L 7.890625 -5.96875 L 7.890625 -6.453125 C 7.890625 -7.347656 7.6875 -8.039062 7.28125 -8.53125 C 6.882812 -9.019531 6.332031 -9.265625 5.625 -9.265625 C 5.1875 -9.265625 4.765625 -9.132812 4.359375 -8.875 C 3.953125 -8.625 3.625 -8.234375 3.375 -7.703125 C 3.125 -7.179688 3 -6.523438 3 -5.734375 L 3 -5.453125 C 3 -4.171875 3.3125 -3.171875 3.9375 -2.453125 C 4.570312 -1.734375 5.390625 -1.375 6.390625 -1.375 C 6.953125 -1.375 7.445312 -1.476562 7.875 -1.6875 C 8.300781 -1.90625 8.71875 -2.265625 9.125 -2.765625 L 9.71875 -2.21875 C 9.28125 -1.40625 8.722656 -0.800781 8.046875 -0.40625 C 7.378906 -0.0078125 6.632812 0.1875 5.8125 0.1875 Z M 5.8125 0.1875 "/></g></g></g><g fill="rgb(0%, 0%, 0%)" fill-opacity="1"><g transform="translate(78.353325, 26.631127)"><g><path d="M 8.078125 -1.453125 C 7.773438 -0.929688 7.363281 -0.523438 6.84375 -0.234375 C 6.332031 0.046875 5.800781 0.1875 5.25 0.1875 C 4.3125 0.1875 3.53125 -0.0976562 2.90625 -0.671875 C 2.289062 -1.253906 1.984375 -2.125 1.984375 -3.28125 L 2.0625 -8.875 L 0.421875 -8.875 L 0.421875 -9.359375 L 3.4375 -12.09375 L 3.890625 -12.09375 L 3.84375 -9.40625 L 3.8125 -3.65625 C 3.8125 -2.84375 3.988281 -2.238281 4.34375 -1.84375 C 4.695312 -1.457031 5.191406 -1.265625 5.828125 -1.265625 C 6.179688 -1.265625 6.507812 -1.335938 6.8125 -1.484375 C 7.125 -1.628906 7.40625 -1.8125 7.65625 -2.03125 Z M 3 -8.875 L 3 -10.046875 L 7.375 -10.046875 L 7.375 -8.875 Z M 3 -8.875 "/></g></g></g><g fill="rgb(0%, 0%, 0%)" fill-opacity="1"><g transform="translate(91.07888, 26.631127)"><g><path d="M 0.625 0 L 0.578125 -0.859375 L 2.15625 -1.1875 C 2.164062 -1.25 2.175781 -1.359375 2.1875 -1.515625 C 2.195312 -1.671875 2.207031 -1.921875 2.21875 -2.265625 C 2.238281 -2.609375 2.25 -3.085938 2.25 -3.703125 L 2.25 -5.25 C 2.25 -5.894531 2.234375 -6.484375 2.203125 -7.015625 C 2.171875 -7.546875 2.128906 -7.953125 2.078125 -8.234375 L 0.515625 -8.5625 L 0.515625 -9.34375 L 3.84375 -10.203125 L 4.1875 -9.875 C 4.144531 -9.394531 4.109375 -8.921875 4.078125 -8.453125 C 4.054688 -7.984375 4.046875 -7.4375 4.046875 -6.8125 L 4.046875 -3.859375 C 4.046875 -3.140625 4.054688 -2.546875 4.078125 -2.078125 C 4.109375 -1.609375 4.140625 -1.3125 4.171875 -1.1875 L 5.734375 -0.859375 L 5.6875 0 Z M 3.046875 -12.84375 C 2.640625 -12.84375 2.296875 -12.972656 2.015625 -13.234375 C 1.734375 -13.503906 1.59375 -13.835938 1.59375 -14.234375 C 1.59375 -14.609375 1.734375 -14.929688 2.015625 -15.203125 C 2.296875 -15.472656 2.640625 -15.609375 3.046875 -15.609375 C 3.453125 -15.609375 3.785156 -15.472656 4.046875 -15.203125 C 4.316406 -14.929688 4.453125 -14.609375 4.453125 -14.234375 C 4.453125 -13.835938 4.316406 -13.503906 4.046875 -13.234375 C 3.785156 -12.972656 3.453125 -12.84375 3.046875 -12.84375 Z M 3.046875 -12.84375 "/></g></g></g><g fill="rgb(0%, 0%, 0%)" fill-opacity="1"><g transform="translate(102.143177, 26.631127)"><g><path d="M 5.78125 0.1875 C 4.90625 0.1875 4.097656 -0.0078125 3.359375 -0.40625 C 2.628906 -0.800781 2.046875 -1.378906 1.609375 -2.140625 C 1.171875 -2.898438 0.953125 -3.800781 0.953125 -4.84375 C 0.953125 -5.851562 1.179688 -6.765625 1.640625 -7.578125 C 2.109375 -8.390625 2.738281 -9.035156 3.53125 -9.515625 C 4.332031 -10.003906 5.238281 -10.25 6.25 -10.25 C 6.9375 -10.25 7.515625 -10.160156 7.984375 -9.984375 C 8.453125 -9.816406 8.804688 -9.59375 9.046875 -9.3125 C 9.285156 -9.03125 9.40625 -8.734375 9.40625 -8.421875 C 9.40625 -8.171875 9.328125 -7.960938 9.171875 -7.796875 C 9.015625 -7.640625 8.796875 -7.5625 8.515625 -7.5625 C 8.253906 -7.5625 8.035156 -7.609375 7.859375 -7.703125 C 7.691406 -7.796875 7.46875 -7.984375 7.1875 -8.265625 L 6 -9.453125 L 6.828125 -9.21875 C 6.210938 -9.363281 5.613281 -9.304688 5.03125 -9.046875 C 4.457031 -8.785156 3.984375 -8.335938 3.609375 -7.703125 C 3.234375 -7.078125 3.046875 -6.265625 3.046875 -5.265625 C 3.046875 -4.015625 3.359375 -3.050781 3.984375 -2.375 C 4.617188 -1.707031 5.410156 -1.375 6.359375 -1.375 C 6.953125 -1.375 7.460938 -1.484375 7.890625 -1.703125 C 8.328125 -1.921875 8.738281 -2.273438 9.125 -2.765625 L 9.765625 -2.21875 C 9.328125 -1.40625 8.769531 -0.800781 8.09375 -0.40625 C 7.425781 -0.0078125 6.65625 0.1875 5.78125 0.1875 Z M 5.78125 0.1875 "/></g></g></g><g fill="rgb(0%, 0%, 0%)" fill-opacity="1"><g transform="translate(116.880952, 26.631127)"><g><path d="M 4.59375 0.1875 C 3.96875 0.1875 3.410156 0.0625 2.921875 -0.1875 C 2.441406 -0.4375 2.0625 -0.753906 1.78125 -1.140625 C 1.507812 -1.535156 1.375 -1.941406 1.375 -2.359375 C 1.375 -2.878906 1.539062 -3.3125 1.875 -3.65625 C 2.21875 -4 2.785156 -4.300781 3.578125 -4.5625 L 7.140625 -5.765625 L 7.140625 -6.953125 C 7.140625 -7.335938 7.019531 -7.691406 6.78125 -8.015625 C 6.550781 -8.335938 6.238281 -8.59375 5.84375 -8.78125 C 5.457031 -8.96875 5.023438 -9.0625 4.546875 -9.0625 C 4.148438 -9.0625 3.878906 -8.976562 3.734375 -8.8125 C 3.597656 -8.644531 3.515625 -8.320312 3.484375 -7.84375 L 3.4375 -6.859375 C 2.875 -6.734375 2.394531 -6.75 2 -6.90625 C 1.613281 -7.070312 1.421875 -7.34375 1.421875 -7.71875 C 1.421875 -7.988281 1.535156 -8.253906 1.765625 -8.515625 C 2.003906 -8.785156 2.3125 -9.039062 2.6875 -9.28125 C 3.0625 -9.519531 3.460938 -9.722656 3.890625 -9.890625 C 4.328125 -10.066406 4.753906 -10.1875 5.171875 -10.25 C 6.304688 -10.25 7.222656 -9.945312 7.921875 -9.34375 C 8.628906 -8.75 8.992188 -7.953125 9.015625 -6.953125 L 8.96875 -3.015625 C 8.96875 -2.734375 8.976562 -2.445312 9 -2.15625 C 9.019531 -1.875 9.054688 -1.660156 9.109375 -1.515625 L 10.609375 -1.234375 L 10.609375 -0.515625 L 9.453125 -0.09375 C 9.234375 0 9.03125 0.0664062 8.84375 0.109375 C 8.65625 0.160156 8.5 0.1875 8.375 0.1875 C 7.894531 0.1875 7.582031 -0.0820312 7.4375 -0.625 L 7.1875 -1.546875 L 7.53125 -1.546875 C 7.019531 -0.960938 6.523438 -0.523438 6.046875 -0.234375 C 5.578125 0.046875 5.09375 0.1875 4.59375 0.1875 Z M 5.21875 -1.1875 C 5.582031 -1.1875 5.921875 -1.269531 6.234375 -1.4375 C 6.554688 -1.601562 6.859375 -1.859375 7.140625 -2.203125 L 7.140625 -4.65625 L 4.515625 -3.953125 C 4.140625 -3.859375 3.867188 -3.707031 3.703125 -3.5 C 3.546875 -3.300781 3.46875 -3.046875 3.46875 -2.734375 C 3.46875 -2.347656 3.640625 -1.992188 3.984375 -1.671875 C 4.335938 -1.347656 4.75 -1.1875 5.21875 -1.1875 Z M 5.21875 -1.1875 "/></g></g></g></svg>