<svg xmlns="http://www.w3.org/2000/svg" xmlns:xlink="http://www.w3.org/1999/xlink" width="50" zoomAndPan="magnify" viewBox="0 0 37.5 37.499999" height="50" preserveAspectRatio="xMidYMid meet" version="1.0"><defs><clipPath id="id1"><path d="M 8.054688 8.09375 L 29.804688 8.09375 L 29.804688 29 L 8.054688 29 Z M 8.054688 8.09375 " clip-rule="nonzero"/></clipPath><clipPath id="id2"><path d="M 8.054688 8.09375 L 29.804688 8.09375 L 29.804688 29.09375 L 8.054688 29.09375 Z M 8.054688 8.09375 " clip-rule="nonzero"/></clipPath></defs><g clip-path="url(#id1)"><path fill="rgb(16.079712%, 18.429565%, 19.999695%)" d="M 20.660156 18.605469 L 29.511719 27.183594 L 27.78125 28.859375 L 18.929688 20.285156 L 10.082031 28.859375 L 8.351562 27.183594 L 17.199219 18.605469 L 8.351562 10.03125 L 10.082031 8.351562 L 18.929688 16.929688 L 27.78125 8.351562 L 29.511719 10.03125 Z M 20.660156 18.605469 " fill-opacity="1" fill-rule="nonzero"/></g><g clip-path="url(#id2)"><path fill="rgb(16.079712%, 18.429565%, 19.999695%)" d="M 27.78125 29.09375 C 27.71875 29.09375 27.65625 29.070312 27.609375 29.027344 L 18.929688 20.617188 L 10.253906 29.027344 C 10.207031 29.070312 10.144531 29.09375 10.082031 29.09375 C 10.019531 29.09375 9.957031 29.070312 9.910156 29.027344 L 8.179688 27.347656 C 8.085938 27.257812 8.085938 27.109375 8.179688 27.015625 L 16.859375 18.605469 L 8.179688 10.195312 C 8.085938 10.105469 8.085938 9.957031 8.179688 9.863281 L 9.910156 8.1875 C 9.957031 8.144531 10.019531 8.117188 10.082031 8.117188 C 10.144531 8.117188 10.207031 8.144531 10.253906 8.1875 L 18.929688 16.597656 L 27.609375 8.1875 C 27.703125 8.09375 27.855469 8.09375 27.949219 8.1875 L 29.679688 9.863281 C 29.777344 9.957031 29.777344 10.105469 29.679688 10.195312 L 21.003906 18.605469 L 29.679688 27.015625 C 29.726562 27.0625 29.753906 27.121094 29.753906 27.183594 C 29.753906 27.246094 29.726562 27.304688 29.679688 27.347656 L 27.949219 29.027344 C 27.902344 29.070312 27.839844 29.09375 27.78125 29.09375 Z M 18.929688 20.050781 C 18.992188 20.050781 19.054688 20.074219 19.101562 20.117188 L 27.78125 28.527344 L 29.167969 27.183594 L 20.492188 18.773438 C 20.445312 18.726562 20.421875 18.667969 20.421875 18.605469 C 20.421875 18.542969 20.445312 18.484375 20.492188 18.441406 L 29.167969 10.03125 L 27.78125 8.683594 L 19.101562 17.09375 C 19.007812 17.1875 18.855469 17.1875 18.761719 17.09375 L 10.082031 8.683594 L 8.695312 10.03125 L 17.371094 18.441406 C 17.464844 18.53125 17.464844 18.679688 17.371094 18.773438 L 8.695312 27.183594 L 10.082031 28.527344 L 18.761719 20.117188 C 18.808594 20.074219 18.871094 20.050781 18.929688 20.050781 Z M 18.929688 20.050781 " fill-opacity="1" fill-rule="nonzero"/></g></svg>