<svg xmlns="http://www.w3.org/2000/svg" xmlns:xlink="http://www.w3.org/1999/xlink" width="50" zoomAndPan="magnify" viewBox="0 0 37.5 37.499999" height="50" preserveAspectRatio="xMidYMid meet" version="1.0"><defs><clipPath id="id1"><path d="M 3.265625 7.910156 L 34.015625 7.910156 L 34.015625 29.660156 L 3.265625 29.660156 Z M 3.265625 7.910156 " clip-rule="nonzero"/></clipPath></defs><g clip-path="url(#id1)"><path fill="rgb(16.079712%, 18.429565%, 19.999695%)" d="M 4.945312 7.96875 C 4.742188 7.964844 4.546875 8 4.355469 8.078125 C 4.164062 8.15625 3.996094 8.265625 3.851562 8.414062 C 3.707031 8.558594 3.59375 8.726562 3.515625 8.917969 C 3.433594 9.105469 3.394531 9.304688 3.394531 9.511719 C 3.394531 9.71875 3.433594 9.917969 3.515625 10.109375 C 3.59375 10.300781 3.707031 10.46875 3.851562 10.613281 C 3.996094 10.757812 4.164062 10.871094 4.355469 10.945312 C 4.546875 11.023438 4.742188 11.0625 4.945312 11.058594 L 32.484375 11.058594 C 32.6875 11.0625 32.886719 11.023438 33.078125 10.945312 C 33.265625 10.871094 33.433594 10.757812 33.582031 10.613281 C 33.726562 10.46875 33.839844 10.300781 33.917969 10.109375 C 33.996094 9.917969 34.035156 9.71875 34.035156 9.511719 C 34.035156 9.304688 33.996094 9.105469 33.917969 8.917969 C 33.839844 8.726562 33.726562 8.558594 33.582031 8.414062 C 33.433594 8.265625 33.265625 8.15625 33.078125 8.078125 C 32.886719 8 32.6875 7.964844 32.484375 7.96875 Z M 4.945312 17.238281 C 4.742188 17.238281 4.546875 17.273438 4.355469 17.351562 C 4.164062 17.429688 3.996094 17.539062 3.851562 17.683594 C 3.707031 17.828125 3.59375 17.996094 3.515625 18.1875 C 3.433594 18.378906 3.394531 18.578125 3.394531 18.785156 C 3.394531 18.992188 3.433594 19.191406 3.515625 19.382812 C 3.59375 19.570312 3.707031 19.742188 3.851562 19.886719 C 3.996094 20.03125 4.164062 20.140625 4.355469 20.21875 C 4.546875 20.296875 4.742188 20.332031 4.945312 20.332031 L 32.484375 20.332031 C 32.6875 20.332031 32.886719 20.296875 33.078125 20.21875 C 33.265625 20.140625 33.433594 20.03125 33.582031 19.886719 C 33.726562 19.742188 33.839844 19.570312 33.917969 19.382812 C 33.996094 19.191406 34.035156 18.992188 34.035156 18.785156 C 34.035156 18.578125 33.996094 18.378906 33.917969 18.1875 C 33.839844 17.996094 33.726562 17.828125 33.582031 17.683594 C 33.433594 17.539062 33.265625 17.429688 33.078125 17.351562 C 32.886719 17.273438 32.6875 17.238281 32.484375 17.238281 Z M 4.945312 26.511719 C 4.742188 26.507812 4.546875 26.546875 4.355469 26.621094 C 4.164062 26.699219 3.996094 26.8125 3.851562 26.957031 C 3.707031 27.101562 3.59375 27.269531 3.515625 27.460938 C 3.433594 27.652344 3.394531 27.851562 3.394531 28.058594 C 3.394531 28.265625 3.433594 28.460938 3.515625 28.652344 C 3.59375 28.84375 3.707031 29.011719 3.851562 29.15625 C 3.996094 29.304688 4.164062 29.414062 4.355469 29.492188 C 4.546875 29.566406 4.742188 29.605469 4.945312 29.601562 L 32.484375 29.601562 C 32.6875 29.605469 32.886719 29.566406 33.078125 29.492188 C 33.265625 29.414062 33.433594 29.304688 33.582031 29.15625 C 33.726562 29.011719 33.839844 28.84375 33.917969 28.652344 C 33.996094 28.460938 34.035156 28.265625 34.035156 28.058594 C 34.035156 27.851562 33.996094 27.652344 33.917969 27.460938 C 33.839844 27.269531 33.726562 27.101562 33.582031 26.957031 C 33.433594 26.8125 33.265625 26.699219 33.078125 26.621094 C 32.886719 26.546875 32.6875 26.507812 32.484375 26.511719 Z M 4.945312 26.511719 " fill-opacity="1" fill-rule="nonzero"/></g></svg>